<mxfile host="app.diagrams.net" modified="2021-09-03T17:47:24.464Z" agent="5.0 (Windows NT 10.0; Win64; x64) AppleWebKit/537.36 (KHTML, like Gecko) Chrome/90.0.4430.85 Safari/537.36" etag="YdI81ODMx4_oAUAEGQ5w" version="14.9.8" type="github">
  <diagram id="UYa9zqEa5jP1za7Ifsaf" name="Page-1">
    <mxGraphModel dx="2462" dy="804" grid="1" gridSize="10" guides="1" tooltips="1" connect="1" arrows="1" fold="1" page="1" pageScale="1" pageWidth="827" pageHeight="1169" math="0" shadow="0">
      <root>
        <mxCell id="0" />
        <mxCell id="1" parent="0" />
        <mxCell id="jKc1vA1R8jvW0y66TiiC-5" value="指派" style="edgeStyle=orthogonalEdgeStyle;rounded=0;orthogonalLoop=1;jettySize=auto;html=1;exitX=1;exitY=0.3333333333333333;exitDx=0;exitDy=0;exitPerimeter=0;entryX=0;entryY=0.3333333333333333;entryDx=0;entryDy=0;entryPerimeter=0;" parent="1" source="ca9gTvs0Y7VJzMvLw8xB-1" target="ca9gTvs0Y7VJzMvLw8xB-2" edge="1">
          <mxGeometry relative="1" as="geometry" />
        </mxCell>
        <mxCell id="ca9gTvs0Y7VJzMvLw8xB-1" value="业务人员" style="shape=umlActor;verticalLabelPosition=bottom;verticalAlign=top;html=1;outlineConnect=0;" parent="1" vertex="1">
          <mxGeometry x="225" y="290" width="30" height="60" as="geometry" />
        </mxCell>
        <mxCell id="jKc1vA1R8jvW0y66TiiC-6" value="是BUG，复现问题" style="edgeStyle=orthogonalEdgeStyle;rounded=0;orthogonalLoop=1;jettySize=auto;html=1;exitX=1;exitY=0.3333333333333333;exitDx=0;exitDy=0;exitPerimeter=0;entryX=0;entryY=0.3333333333333333;entryDx=0;entryDy=0;entryPerimeter=0;" parent="1" source="ca9gTvs0Y7VJzMvLw8xB-2" target="ca9gTvs0Y7VJzMvLw8xB-3" edge="1">
          <mxGeometry relative="1" as="geometry" />
        </mxCell>
        <mxCell id="jKc1vA1R8jvW0y66TiiC-13" value="是需求" style="edgeStyle=orthogonalEdgeStyle;rounded=0;orthogonalLoop=1;jettySize=auto;html=1;" parent="1" source="ca9gTvs0Y7VJzMvLw8xB-2" target="jKc1vA1R8jvW0y66TiiC-12" edge="1">
          <mxGeometry relative="1" as="geometry" />
        </mxCell>
        <mxCell id="ca9gTvs0Y7VJzMvLw8xB-2" value="测试" style="shape=umlActor;verticalLabelPosition=bottom;verticalAlign=top;html=1;outlineConnect=0;" parent="1" vertex="1">
          <mxGeometry x="395" y="290" width="30" height="60" as="geometry" />
        </mxCell>
        <mxCell id="jKc1vA1R8jvW0y66TiiC-8" style="edgeStyle=orthogonalEdgeStyle;rounded=0;orthogonalLoop=1;jettySize=auto;html=1;entryX=0.5;entryY=0.5;entryDx=0;entryDy=0;entryPerimeter=0;" parent="1" source="ca9gTvs0Y7VJzMvLw8xB-3" target="ca9gTvs0Y7VJzMvLw8xB-2" edge="1">
          <mxGeometry relative="1" as="geometry" />
        </mxCell>
        <mxCell id="jKc1vA1R8jvW0y66TiiC-9" value="解决需求" style="edgeLabel;html=1;align=center;verticalAlign=middle;resizable=0;points=[];" parent="jKc1vA1R8jvW0y66TiiC-8" vertex="1" connectable="0">
          <mxGeometry x="-0.2101" y="2" relative="1" as="geometry">
            <mxPoint as="offset" />
          </mxGeometry>
        </mxCell>
        <mxCell id="ca9gTvs0Y7VJzMvLw8xB-3" value="开发" style="shape=umlActor;verticalLabelPosition=bottom;verticalAlign=top;html=1;outlineConnect=0;" parent="1" vertex="1">
          <mxGeometry x="544" y="290" width="30" height="60" as="geometry" />
        </mxCell>
        <mxCell id="jKc1vA1R8jvW0y66TiiC-10" value="线上问题发现处理方案" style="text;html=1;align=center;verticalAlign=middle;resizable=0;points=[];autosize=1;strokeColor=none;" parent="1" vertex="1">
          <mxGeometry x="145" y="250" width="140" height="20" as="geometry" />
        </mxCell>
        <mxCell id="jKc1vA1R8jvW0y66TiiC-12" value="产品" style="shape=umlActor;verticalLabelPosition=bottom;verticalAlign=top;html=1;outlineConnect=0;" parent="1" vertex="1">
          <mxGeometry x="395" y="440" width="30" height="60" as="geometry" />
        </mxCell>
        <mxCell id="jKc1vA1R8jvW0y66TiiC-16" value="判断是需求还是BUG可以是测试，也可以是开发，为什么写在测试是因为一个测试可能对4个开发工程师开发的功能，开发也不一定详尽" style="text;html=1;align=center;verticalAlign=middle;resizable=0;points=[];autosize=1;strokeColor=none;" parent="1" vertex="1">
          <mxGeometry x="90" y="190" width="730" height="20" as="geometry" />
        </mxCell>
        <mxCell id="8_Ung6PEout7Oxgrc0nq-5" style="edgeStyle=orthogonalEdgeStyle;rounded=0;orthogonalLoop=1;jettySize=auto;html=1;exitX=1;exitY=0.3333333333333333;exitDx=0;exitDy=0;exitPerimeter=0;entryX=0;entryY=0.5;entryDx=0;entryDy=0;entryPerimeter=0;" parent="1" source="8_Ung6PEout7Oxgrc0nq-1" target="8_Ung6PEout7Oxgrc0nq-4" edge="1">
          <mxGeometry relative="1" as="geometry">
            <Array as="points">
              <mxPoint x="-250" y="740" />
              <mxPoint x="-250" y="850" />
            </Array>
          </mxGeometry>
        </mxCell>
        <mxCell id="8_Ung6PEout7Oxgrc0nq-1" value="A:爬虫工程师" style="shape=umlActor;verticalLabelPosition=bottom;verticalAlign=top;html=1;" parent="1" vertex="1">
          <mxGeometry x="-330" y="720" width="30" height="60" as="geometry" />
        </mxCell>
        <mxCell id="8_Ung6PEout7Oxgrc0nq-12" value="" style="edgeStyle=orthogonalEdgeStyle;rounded=0;orthogonalLoop=1;jettySize=auto;html=1;" parent="1" source="8_Ung6PEout7Oxgrc0nq-2" target="8_Ung6PEout7Oxgrc0nq-11" edge="1">
          <mxGeometry relative="1" as="geometry" />
        </mxCell>
        <mxCell id="8_Ung6PEout7Oxgrc0nq-2" value="晓宁" style="shape=umlActor;verticalLabelPosition=bottom;verticalAlign=top;html=1;" parent="1" vertex="1">
          <mxGeometry x="-80" y="820" width="30" height="60" as="geometry" />
        </mxCell>
        <mxCell id="8_Ung6PEout7Oxgrc0nq-10" value="" style="edgeStyle=orthogonalEdgeStyle;rounded=0;orthogonalLoop=1;jettySize=auto;html=1;" parent="1" source="8_Ung6PEout7Oxgrc0nq-4" target="8_Ung6PEout7Oxgrc0nq-2" edge="1">
          <mxGeometry relative="1" as="geometry" />
        </mxCell>
        <mxCell id="8_Ung6PEout7Oxgrc0nq-4" value="bd-crawler" style="shape=cylinder3;whiteSpace=wrap;html=1;boundedLbl=1;backgroundOutline=1;size=15;" parent="1" vertex="1">
          <mxGeometry x="-200" y="810" width="60" height="80" as="geometry" />
        </mxCell>
        <mxCell id="8_Ung6PEout7Oxgrc0nq-9" value="" style="edgeStyle=orthogonalEdgeStyle;rounded=0;orthogonalLoop=1;jettySize=auto;html=1;" parent="1" source="8_Ung6PEout7Oxgrc0nq-6" target="8_Ung6PEout7Oxgrc0nq-4" edge="1">
          <mxGeometry relative="1" as="geometry" />
        </mxCell>
        <mxCell id="8_Ung6PEout7Oxgrc0nq-13" value="爬取数据" style="edgeLabel;html=1;align=center;verticalAlign=middle;resizable=0;points=[];" parent="8_Ung6PEout7Oxgrc0nq-9" vertex="1" connectable="0">
          <mxGeometry x="0.5412" relative="1" as="geometry">
            <mxPoint as="offset" />
          </mxGeometry>
        </mxCell>
        <mxCell id="8_Ung6PEout7Oxgrc0nq-6" value="B:爬虫工程师" style="shape=umlActor;verticalLabelPosition=bottom;verticalAlign=top;html=1;" parent="1" vertex="1">
          <mxGeometry x="-330" y="890" width="30" height="60" as="geometry" />
        </mxCell>
        <mxCell id="8_Ung6PEout7Oxgrc0nq-15" style="edgeStyle=orthogonalEdgeStyle;rounded=0;orthogonalLoop=1;jettySize=auto;html=1;exitX=1;exitY=0.5;exitDx=0;exitDy=0;exitPerimeter=0;" parent="1" source="8_Ung6PEout7Oxgrc0nq-11" target="8_Ung6PEout7Oxgrc0nq-14" edge="1">
          <mxGeometry relative="1" as="geometry" />
        </mxCell>
        <mxCell id="8_Ung6PEout7Oxgrc0nq-11" value="bd-spider" style="shape=cylinder3;whiteSpace=wrap;html=1;boundedLbl=1;backgroundOutline=1;size=15;" parent="1" vertex="1">
          <mxGeometry x="40" y="810" width="60" height="80" as="geometry" />
        </mxCell>
        <mxCell id="8_Ung6PEout7Oxgrc0nq-17" value="" style="edgeStyle=orthogonalEdgeStyle;rounded=0;orthogonalLoop=1;jettySize=auto;html=1;" parent="1" source="8_Ung6PEout7Oxgrc0nq-14" target="8_Ung6PEout7Oxgrc0nq-16" edge="1">
          <mxGeometry relative="1" as="geometry" />
        </mxCell>
        <mxCell id="8_Ung6PEout7Oxgrc0nq-14" value="伟强" style="shape=umlActor;verticalLabelPosition=bottom;verticalAlign=top;html=1;outlineConnect=0;" parent="1" vertex="1">
          <mxGeometry x="230" y="820" width="30" height="60" as="geometry" />
        </mxCell>
        <mxCell id="8_Ung6PEout7Oxgrc0nq-22" value="" style="edgeStyle=orthogonalEdgeStyle;rounded=0;orthogonalLoop=1;jettySize=auto;html=1;" parent="1" source="8_Ung6PEout7Oxgrc0nq-16" target="8_Ung6PEout7Oxgrc0nq-21" edge="1">
          <mxGeometry relative="1" as="geometry">
            <Array as="points">
              <mxPoint x="490" y="850" />
              <mxPoint x="490" y="850" />
            </Array>
          </mxGeometry>
        </mxCell>
        <mxCell id="8_Ung6PEout7Oxgrc0nq-71" value="手工同步" style="edgeLabel;html=1;align=center;verticalAlign=middle;resizable=0;points=[];" parent="8_Ung6PEout7Oxgrc0nq-22" vertex="1" connectable="0">
          <mxGeometry x="-0.2075" y="-2" relative="1" as="geometry">
            <mxPoint as="offset" />
          </mxGeometry>
        </mxCell>
        <mxCell id="8_Ung6PEout7Oxgrc0nq-16" value="&lt;br&gt;bd-ware" style="shape=cylinder;whiteSpace=wrap;html=1;boundedLbl=1;backgroundOutline=1;verticalAlign=top;" parent="1" vertex="1">
          <mxGeometry x="354" y="810" width="60" height="80" as="geometry" />
        </mxCell>
        <mxCell id="8_Ung6PEout7Oxgrc0nq-19" value="&lt;span style=&quot;color: rgba(0 , 0 , 0 , 0) ; font-family: monospace ; font-size: 0px&quot;&gt;%3CmxGraphModel%3E%3Croot%3E%3CmxCell%20id%3D%220%22%2F%3E%3CmxCell%20id%3D%221%22%20parent%3D%220%22%2F%3E%3CmxCell%20id%3D%222%22%20value%3D%22%E5%AE%9A%E6%97%B6%E5%99%A8%E5%90%8C%E6%AD%A5%E5%88%B0%E3%80%82%26lt%3Bbr%26gt%3B%E5%90%8C%E6%AD%A5%E7%9A%84%E8%A7%84%E5%88%99%EF%BC%9A%E6%9D%A5%E6%BA%90%E6%98%AF%E5%90%A6%E5%9C%A8%E5%93%81%E7%89%8C%E6%98%A0%E5%B0%84%E9%87%8C%26amp%3Bamp%3B%26amp%3Bamp%3B%EF%BC%88%E6%9C%89pdf%20or%20%E6%9C%89%E5%8F%82%E6%95%B0%E8%AF%A6%E6%83%85%EF%BC%89%22%20style%3D%22edgeLabel%3Bhtml%3D1%3Balign%3Dcenter%3BverticalAlign%3Dmiddle%3Bresizable%3D0%3Bpoints%3D%5B%5D%3B%22%20vertex%3D%221%22%20connectable%3D%220%22%20parent%3D%221%22%3E%3CmxGeometry%20x%3D%22329%22%20y%3D%22849%22%20as%3D%22geometry%22%2F%3E%3C%2FmxCell%3E%3C%2Froot%3E%3C%2FmxGraphModel%3E&lt;/span&gt;" style="text;html=1;strokeColor=none;fillColor=none;align=center;verticalAlign=middle;whiteSpace=wrap;rounded=0;" parent="1" vertex="1">
          <mxGeometry x="374" y="740" width="40" height="20" as="geometry" />
        </mxCell>
        <mxCell id="8_Ung6PEout7Oxgrc0nq-20" value="定时器同步&lt;br&gt;同步的规则：&lt;br&gt;来源是否在品牌映射里&amp;amp;&amp;amp;（有pdf or 有参数详情）" style="edgeLabel;html=1;align=center;verticalAlign=middle;resizable=0;points=[];" parent="1" vertex="1" connectable="0">
          <mxGeometry x="374" y="740" as="geometry">
            <mxPoint x="-152" y="28" as="offset" />
          </mxGeometry>
        </mxCell>
        <mxCell id="8_Ung6PEout7Oxgrc0nq-70" style="edgeStyle=orthogonalEdgeStyle;rounded=0;orthogonalLoop=1;jettySize=auto;html=1;" parent="1" source="8_Ung6PEout7Oxgrc0nq-21" edge="1">
          <mxGeometry relative="1" as="geometry">
            <mxPoint x="660" y="850" as="targetPoint" />
          </mxGeometry>
        </mxCell>
        <mxCell id="8_Ung6PEout7Oxgrc0nq-21" value="启豪" style="shape=umlActor;verticalLabelPosition=bottom;verticalAlign=top;html=1;outlineConnect=0;" parent="1" vertex="1">
          <mxGeometry x="520" y="820" width="30" height="60" as="geometry" />
        </mxCell>
        <mxCell id="8_Ung6PEout7Oxgrc0nq-27" value="" style="edgeStyle=orthogonalEdgeStyle;rounded=0;orthogonalLoop=1;jettySize=auto;html=1;" parent="1" source="8_Ung6PEout7Oxgrc0nq-23" target="8_Ung6PEout7Oxgrc0nq-26" edge="1">
          <mxGeometry relative="1" as="geometry" />
        </mxCell>
        <mxCell id="8_Ung6PEout7Oxgrc0nq-23" value="搜索引擎" style="shape=cylinder3;whiteSpace=wrap;html=1;boundedLbl=1;backgroundOutline=1;size=15;" parent="1" vertex="1">
          <mxGeometry x="670" y="800" width="60" height="80" as="geometry" />
        </mxCell>
        <mxCell id="8_Ung6PEout7Oxgrc0nq-26" value="App展示" style="ellipse;shape=cloud;whiteSpace=wrap;html=1;" parent="1" vertex="1">
          <mxGeometry x="775" y="800" width="120" height="80" as="geometry" />
        </mxCell>
        <mxCell id="8_Ung6PEout7Oxgrc0nq-69" style="edgeStyle=orthogonalEdgeStyle;rounded=0;orthogonalLoop=1;jettySize=auto;html=1;entryX=0.5;entryY=0;entryDx=0;entryDy=0;entryPerimeter=0;" parent="1" source="8_Ung6PEout7Oxgrc0nq-53" target="8_Ung6PEout7Oxgrc0nq-2" edge="1">
          <mxGeometry relative="1" as="geometry" />
        </mxCell>
        <mxCell id="8_Ung6PEout7Oxgrc0nq-53" value="1，就是根据他们的条件，找到对应的库表；&lt;br&gt;2，然后把数据插入到测试的bd-spider.ware_detail,检查数据，统计&amp;nbsp;pdf_url,img_url等；&lt;br&gt;3，根据otter的同步机制，及时查看数据同步的情况，也就是生产的bd-spider.ware_detail的数据统计&lt;br&gt;4，然后再去查生产bd-ware.ware_detail的数据同步情况，&lt;br&gt;补充：就是不是原厂的没有brand_id的还得映射更新brand_id,尤其是遗留的数据，还有就是list_json有脏数据的能处理的尽可能处理下" style="text;whiteSpace=wrap;html=1;" parent="1" vertex="1">
          <mxGeometry x="-340" y="590" width="550" height="110" as="geometry" />
        </mxCell>
        <mxCell id="InDoMrmHrZj6lxwtgz9c-3" style="edgeStyle=orthogonalEdgeStyle;rounded=0;orthogonalLoop=1;jettySize=auto;html=1;exitX=1;exitY=0.5;exitDx=0;exitDy=0;exitPerimeter=0;entryX=0;entryY=0.5;entryDx=0;entryDy=0;entryPerimeter=0;" edge="1" parent="1" source="InDoMrmHrZj6lxwtgz9c-1" target="InDoMrmHrZj6lxwtgz9c-2">
          <mxGeometry relative="1" as="geometry" />
        </mxCell>
        <mxCell id="InDoMrmHrZj6lxwtgz9c-9" value="全量同步" style="edgeLabel;html=1;align=center;verticalAlign=middle;resizable=0;points=[];" vertex="1" connectable="0" parent="InDoMrmHrZj6lxwtgz9c-3">
          <mxGeometry x="-0.1652" y="1" relative="1" as="geometry">
            <mxPoint as="offset" />
          </mxGeometry>
        </mxCell>
        <mxCell id="InDoMrmHrZj6lxwtgz9c-1" value="bd-spider" style="shape=cylinder3;whiteSpace=wrap;html=1;boundedLbl=1;backgroundOutline=1;size=15;" vertex="1" parent="1">
          <mxGeometry x="-600" y="1670" width="60" height="70" as="geometry" />
        </mxCell>
        <mxCell id="InDoMrmHrZj6lxwtgz9c-6" value="" style="edgeStyle=orthogonalEdgeStyle;rounded=0;orthogonalLoop=1;jettySize=auto;html=1;" edge="1" parent="1" source="InDoMrmHrZj6lxwtgz9c-2" target="InDoMrmHrZj6lxwtgz9c-5">
          <mxGeometry relative="1" as="geometry" />
        </mxCell>
        <mxCell id="InDoMrmHrZj6lxwtgz9c-27" value="" style="edgeStyle=orthogonalEdgeStyle;rounded=0;orthogonalLoop=1;jettySize=auto;html=1;" edge="1" parent="1" source="InDoMrmHrZj6lxwtgz9c-2" target="InDoMrmHrZj6lxwtgz9c-26">
          <mxGeometry relative="1" as="geometry" />
        </mxCell>
        <mxCell id="InDoMrmHrZj6lxwtgz9c-2" value="bd-ware" style="shape=cylinder3;whiteSpace=wrap;html=1;boundedLbl=1;backgroundOutline=1;size=15;" vertex="1" parent="1">
          <mxGeometry x="-310" y="1660" width="60" height="80" as="geometry" />
        </mxCell>
        <mxCell id="InDoMrmHrZj6lxwtgz9c-4" value="bd-spider的&lt;span style=&quot;font-family: &amp;#34;helvetica&amp;#34; ; font-size: 11px ; background-color: rgb(255 , 255 , 255)&quot;&gt;【物料名称和来源】&lt;/span&gt;不能改" style="text;html=1;strokeColor=none;fillColor=none;align=center;verticalAlign=middle;whiteSpace=wrap;rounded=0;" vertex="1" parent="1">
          <mxGeometry x="-770" y="1680" width="160" height="60" as="geometry" />
        </mxCell>
        <mxCell id="InDoMrmHrZj6lxwtgz9c-30" value="找到" style="edgeStyle=orthogonalEdgeStyle;rounded=0;orthogonalLoop=1;jettySize=auto;html=1;" edge="1" parent="1" source="InDoMrmHrZj6lxwtgz9c-5" target="InDoMrmHrZj6lxwtgz9c-29">
          <mxGeometry relative="1" as="geometry" />
        </mxCell>
        <mxCell id="InDoMrmHrZj6lxwtgz9c-5" value="品牌映射" style="shape=cylinder3;whiteSpace=wrap;html=1;boundedLbl=1;backgroundOutline=1;size=15;" vertex="1" parent="1">
          <mxGeometry x="50" y="1660" width="60" height="80" as="geometry" />
        </mxCell>
        <mxCell id="InDoMrmHrZj6lxwtgz9c-8" value="根据【物料的名和来源】去找品牌映射brand_id" style="edgeLabel;html=1;align=center;verticalAlign=middle;resizable=0;points=[];" vertex="1" connectable="0" parent="1">
          <mxGeometry x="-110" y="1700" as="geometry">
            <mxPoint x="14" y="-5" as="offset" />
          </mxGeometry>
        </mxCell>
        <mxCell id="InDoMrmHrZj6lxwtgz9c-12" value="不能编辑品牌名和来源" style="text;html=1;align=center;verticalAlign=middle;resizable=0;points=[];autosize=1;strokeColor=none;" vertex="1" parent="1">
          <mxGeometry x="10" y="1630" width="140" height="20" as="geometry" />
        </mxCell>
        <mxCell id="InDoMrmHrZj6lxwtgz9c-26" value="ES" style="shape=cylinder3;whiteSpace=wrap;html=1;boundedLbl=1;backgroundOutline=1;size=15;" vertex="1" parent="1">
          <mxGeometry x="-310" y="1810" width="60" height="80" as="geometry" />
        </mxCell>
        <mxCell id="InDoMrmHrZj6lxwtgz9c-31" style="edgeStyle=orthogonalEdgeStyle;rounded=0;orthogonalLoop=1;jettySize=auto;html=1;entryX=0.5;entryY=0;entryDx=0;entryDy=0;entryPerimeter=0;" edge="1" parent="1" source="InDoMrmHrZj6lxwtgz9c-29" target="InDoMrmHrZj6lxwtgz9c-2">
          <mxGeometry relative="1" as="geometry">
            <Array as="points">
              <mxPoint x="220" y="1560" />
              <mxPoint x="-280" y="1560" />
            </Array>
          </mxGeometry>
        </mxCell>
        <mxCell id="InDoMrmHrZj6lxwtgz9c-32" value="brand_id更新回业务库" style="edgeLabel;html=1;align=center;verticalAlign=middle;resizable=0;points=[];" vertex="1" connectable="0" parent="InDoMrmHrZj6lxwtgz9c-31">
          <mxGeometry x="0.2257" relative="1" as="geometry">
            <mxPoint x="-1" as="offset" />
          </mxGeometry>
        </mxCell>
        <mxCell id="InDoMrmHrZj6lxwtgz9c-44" value="影响？" style="edgeStyle=orthogonalEdgeStyle;rounded=0;orthogonalLoop=1;jettySize=auto;html=1;" edge="1" parent="1" source="InDoMrmHrZj6lxwtgz9c-29" target="InDoMrmHrZj6lxwtgz9c-43">
          <mxGeometry relative="1" as="geometry" />
        </mxCell>
        <mxCell id="InDoMrmHrZj6lxwtgz9c-47" value="" style="edgeStyle=orthogonalEdgeStyle;rounded=0;orthogonalLoop=1;jettySize=auto;html=1;" edge="1" parent="1" source="InDoMrmHrZj6lxwtgz9c-29" target="InDoMrmHrZj6lxwtgz9c-46">
          <mxGeometry relative="1" as="geometry" />
        </mxCell>
        <mxCell id="InDoMrmHrZj6lxwtgz9c-51" value="影响？" style="edgeLabel;html=1;align=center;verticalAlign=middle;resizable=0;points=[];" vertex="1" connectable="0" parent="InDoMrmHrZj6lxwtgz9c-47">
          <mxGeometry x="0.7479" y="1" relative="1" as="geometry">
            <mxPoint x="3" y="-15" as="offset" />
          </mxGeometry>
        </mxCell>
        <mxCell id="InDoMrmHrZj6lxwtgz9c-50" style="edgeStyle=orthogonalEdgeStyle;rounded=0;orthogonalLoop=1;jettySize=auto;html=1;" edge="1" parent="1" source="InDoMrmHrZj6lxwtgz9c-29" target="InDoMrmHrZj6lxwtgz9c-49">
          <mxGeometry relative="1" as="geometry" />
        </mxCell>
        <mxCell id="InDoMrmHrZj6lxwtgz9c-52" value="影响？" style="edgeLabel;html=1;align=center;verticalAlign=middle;resizable=0;points=[];" vertex="1" connectable="0" parent="InDoMrmHrZj6lxwtgz9c-50">
          <mxGeometry x="0.7574" y="-1" relative="1" as="geometry">
            <mxPoint as="offset" />
          </mxGeometry>
        </mxCell>
        <mxCell id="InDoMrmHrZj6lxwtgz9c-29" value="品牌" style="shape=cylinder3;whiteSpace=wrap;html=1;boundedLbl=1;backgroundOutline=1;size=15;" vertex="1" parent="1">
          <mxGeometry x="190" y="1660" width="60" height="80" as="geometry" />
        </mxCell>
        <mxCell id="InDoMrmHrZj6lxwtgz9c-79" value="&#xa;&#xa;&lt;span style=&quot;color: rgb(0, 0, 0); font-family: helvetica; font-size: 11px; font-style: normal; font-weight: 400; letter-spacing: normal; text-align: center; text-indent: 0px; text-transform: none; word-spacing: 0px; background-color: rgb(255, 255, 255); display: inline; float: none;&quot;&gt;根据【物料的名和来源】找pdf_url和img_url&lt;/span&gt;&#xa;&#xa;" style="edgeStyle=orthogonalEdgeStyle;rounded=0;orthogonalLoop=1;jettySize=auto;html=1;" edge="1" parent="1" source="InDoMrmHrZj6lxwtgz9c-34" target="InDoMrmHrZj6lxwtgz9c-2">
          <mxGeometry x="-1" y="-92" relative="1" as="geometry">
            <mxPoint x="-70" y="-32" as="offset" />
          </mxGeometry>
        </mxCell>
        <mxCell id="InDoMrmHrZj6lxwtgz9c-34" value="网盘" style="shape=cylinder3;whiteSpace=wrap;html=1;boundedLbl=1;backgroundOutline=1;size=15;" vertex="1" parent="1">
          <mxGeometry x="-500" y="1460" width="60" height="80" as="geometry" />
        </mxCell>
        <mxCell id="InDoMrmHrZj6lxwtgz9c-41" value="同步" style="text;html=1;align=center;verticalAlign=middle;resizable=0;points=[];autosize=1;strokeColor=none;" vertex="1" parent="1">
          <mxGeometry x="-280" y="1780" width="40" height="20" as="geometry" />
        </mxCell>
        <mxCell id="InDoMrmHrZj6lxwtgz9c-43" value="PCN/PDN" style="shape=cylinder3;whiteSpace=wrap;html=1;boundedLbl=1;backgroundOutline=1;size=15;" vertex="1" parent="1">
          <mxGeometry x="190" y="1800" width="60" height="80" as="geometry" />
        </mxCell>
        <mxCell id="InDoMrmHrZj6lxwtgz9c-46" value="丝印(ware_smd)" style="shape=cylinder3;whiteSpace=wrap;html=1;boundedLbl=1;backgroundOutline=1;size=15;" vertex="1" parent="1">
          <mxGeometry x="320" y="1800" width="60" height="80" as="geometry" />
        </mxCell>
        <mxCell id="InDoMrmHrZj6lxwtgz9c-49" value="替代料" style="shape=cylinder3;whiteSpace=wrap;html=1;boundedLbl=1;backgroundOutline=1;size=15;" vertex="1" parent="1">
          <mxGeometry x="435" y="1800" width="60" height="80" as="geometry" />
        </mxCell>
        <mxCell id="InDoMrmHrZj6lxwtgz9c-53" value="" style="edgeStyle=orthogonalEdgeStyle;rounded=0;orthogonalLoop=1;jettySize=auto;html=1;" edge="1" parent="1" source="InDoMrmHrZj6lxwtgz9c-54" target="InDoMrmHrZj6lxwtgz9c-57">
          <mxGeometry relative="1" as="geometry" />
        </mxCell>
        <mxCell id="InDoMrmHrZj6lxwtgz9c-54" value="App展示" style="ellipse;shape=cloud;whiteSpace=wrap;html=1;" vertex="1" parent="1">
          <mxGeometry x="-66" y="1101" width="120" height="80" as="geometry" />
        </mxCell>
        <mxCell id="InDoMrmHrZj6lxwtgz9c-55" value="搜索" style="edgeStyle=orthogonalEdgeStyle;rounded=0;orthogonalLoop=1;jettySize=auto;html=1;" edge="1" parent="1" source="InDoMrmHrZj6lxwtgz9c-56" target="InDoMrmHrZj6lxwtgz9c-54">
          <mxGeometry relative="1" as="geometry" />
        </mxCell>
        <mxCell id="InDoMrmHrZj6lxwtgz9c-56" value="用户" style="shape=umlActor;verticalLabelPosition=bottom;verticalAlign=top;html=1;outlineConnect=0;" vertex="1" parent="1">
          <mxGeometry x="-21" y="951" width="30" height="60" as="geometry" />
        </mxCell>
        <mxCell id="InDoMrmHrZj6lxwtgz9c-57" value="达到实时编辑，修改" style="ellipse;whiteSpace=wrap;html=1;" vertex="1" parent="1">
          <mxGeometry x="-66" y="1271" width="120" height="60" as="geometry" />
        </mxCell>
        <mxCell id="InDoMrmHrZj6lxwtgz9c-58" style="edgeStyle=orthogonalEdgeStyle;rounded=0;orthogonalLoop=1;jettySize=auto;html=1;entryX=0.875;entryY=0.5;entryDx=0;entryDy=0;entryPerimeter=0;" edge="1" parent="1" source="InDoMrmHrZj6lxwtgz9c-60" target="InDoMrmHrZj6lxwtgz9c-54">
          <mxGeometry relative="1" as="geometry">
            <Array as="points">
              <mxPoint x="124" y="1141" />
            </Array>
          </mxGeometry>
        </mxCell>
        <mxCell id="InDoMrmHrZj6lxwtgz9c-59" value="品牌名称的上下架，修改" style="edgeLabel;html=1;align=center;verticalAlign=middle;resizable=0;points=[];" vertex="1" connectable="0" parent="InDoMrmHrZj6lxwtgz9c-58">
          <mxGeometry x="0.0605" y="-2" relative="1" as="geometry">
            <mxPoint as="offset" />
          </mxGeometry>
        </mxCell>
        <mxCell id="InDoMrmHrZj6lxwtgz9c-60" value="业务人员A" style="shape=umlActor;verticalLabelPosition=bottom;verticalAlign=top;html=1;outlineConnect=0;" vertex="1" parent="1">
          <mxGeometry x="109" y="951" width="30" height="60" as="geometry" />
        </mxCell>
        <mxCell id="InDoMrmHrZj6lxwtgz9c-61" style="edgeStyle=orthogonalEdgeStyle;rounded=0;orthogonalLoop=1;jettySize=auto;html=1;entryX=0.942;entryY=0.538;entryDx=0;entryDy=0;entryPerimeter=0;" edge="1" parent="1" source="InDoMrmHrZj6lxwtgz9c-63" target="InDoMrmHrZj6lxwtgz9c-54">
          <mxGeometry relative="1" as="geometry">
            <Array as="points">
              <mxPoint x="284" y="1144" />
            </Array>
          </mxGeometry>
        </mxCell>
        <mxCell id="InDoMrmHrZj6lxwtgz9c-62" value="芯片管理-编辑修改" style="edgeLabel;html=1;align=center;verticalAlign=middle;resizable=0;points=[];" vertex="1" connectable="0" parent="InDoMrmHrZj6lxwtgz9c-61">
          <mxGeometry x="0.0704" y="-1" relative="1" as="geometry">
            <mxPoint x="1" as="offset" />
          </mxGeometry>
        </mxCell>
        <mxCell id="InDoMrmHrZj6lxwtgz9c-63" value="后台管理" style="shape=umlActor;verticalLabelPosition=bottom;verticalAlign=top;html=1;outlineConnect=0;" vertex="1" parent="1">
          <mxGeometry x="269" y="951" width="30" height="60" as="geometry" />
        </mxCell>
        <mxCell id="InDoMrmHrZj6lxwtgz9c-64" style="edgeStyle=orthogonalEdgeStyle;rounded=0;orthogonalLoop=1;jettySize=auto;html=1;entryX=0.967;entryY=0.563;entryDx=0;entryDy=0;entryPerimeter=0;" edge="1" parent="1" source="InDoMrmHrZj6lxwtgz9c-66" target="InDoMrmHrZj6lxwtgz9c-54">
          <mxGeometry relative="1" as="geometry">
            <Array as="points">
              <mxPoint x="400" y="1161" />
              <mxPoint x="50" y="1161" />
            </Array>
          </mxGeometry>
        </mxCell>
        <mxCell id="InDoMrmHrZj6lxwtgz9c-65" value="品牌映射的新增" style="edgeLabel;html=1;align=center;verticalAlign=middle;resizable=0;points=[];" vertex="1" connectable="0" parent="InDoMrmHrZj6lxwtgz9c-64">
          <mxGeometry x="0.1457" y="-4" relative="1" as="geometry">
            <mxPoint as="offset" />
          </mxGeometry>
        </mxCell>
        <mxCell id="InDoMrmHrZj6lxwtgz9c-66" value="业务人员B" style="shape=umlActor;verticalLabelPosition=bottom;verticalAlign=top;html=1;outlineConnect=0;" vertex="1" parent="1">
          <mxGeometry x="385" y="951" width="30" height="60" as="geometry" />
        </mxCell>
        <mxCell id="InDoMrmHrZj6lxwtgz9c-67" style="edgeStyle=orthogonalEdgeStyle;rounded=0;orthogonalLoop=1;jettySize=auto;html=1;entryX=0.942;entryY=0.55;entryDx=0;entryDy=0;entryPerimeter=0;" edge="1" parent="1" source="InDoMrmHrZj6lxwtgz9c-69" target="InDoMrmHrZj6lxwtgz9c-54">
          <mxGeometry relative="1" as="geometry">
            <Array as="points">
              <mxPoint x="529" y="1171" />
              <mxPoint x="47" y="1171" />
            </Array>
          </mxGeometry>
        </mxCell>
        <mxCell id="InDoMrmHrZj6lxwtgz9c-68" value="数据爬虫输入" style="edgeLabel;html=1;align=center;verticalAlign=middle;resizable=0;points=[];" vertex="1" connectable="0" parent="InDoMrmHrZj6lxwtgz9c-67">
          <mxGeometry x="-0.2227" y="2" relative="1" as="geometry">
            <mxPoint as="offset" />
          </mxGeometry>
        </mxCell>
        <mxCell id="InDoMrmHrZj6lxwtgz9c-69" value="爬虫数据输入" style="shape=umlActor;verticalLabelPosition=bottom;verticalAlign=top;html=1;outlineConnect=0;" vertex="1" parent="1">
          <mxGeometry x="514" y="950" width="30" height="60" as="geometry" />
        </mxCell>
        <mxCell id="InDoMrmHrZj6lxwtgz9c-81" value="&lt;h1&gt;Attention&lt;br&gt;【物料的品牌名称和来源】来自爬虫库&lt;/h1&gt;" style="text;html=1;strokeColor=none;fillColor=none;spacing=5;spacingTop=-20;whiteSpace=wrap;overflow=hidden;rounded=0;" vertex="1" parent="1">
          <mxGeometry x="-795" y="1380" width="450" height="70" as="geometry" />
        </mxCell>
      </root>
    </mxGraphModel>
  </diagram>
</mxfile>
